<svg xmlns="http://www.w3.org/2000/svg" viewBox="0 0 243.13 232.34"><defs><style>.cls-1{fill:#2863f6;}</style></defs><g id="Layer_2" data-name="Layer 2"><g id="Layer_1-2" data-name="Layer 1"><path class="cls-1" d="M185.12,109.65a63.68,63.68,0,0,0-3.53-15c-12.2,2.51-23.18,5.39-34.38,8.33-24.79,6.51-50.22,13.18-89.54,16.17a63.86,63.86,0,0,0,2.65,16.1c32.25-2.89,53.87-8.56,76.33-14.45C151.61,116.83,166.8,112.85,185.12,109.65Z"/><path class="cls-1" d="M112,53.5c12.7-2.65,24-5.63,35.25-8.57C165.82,40,183.84,35.32,207.8,32.2a.49.49,0,0,0,.3-.82A121.52,121.52,0,0,0,155.82.07a2,2,0,0,0-1,0c-6.22,1.54-12.22,3.11-18.19,4.68-25.13,6.59-49.18,12.9-88.27,15.36a1.83,1.83,0,0,0-1.05.39A122.08,122.08,0,0,0,13,62a.5.5,0,0,0,.44.71c40.48-.1,69-3.45,92.48-8C107.9,54.22,109.92,53.81,112,53.5Z"/><path class="cls-1" d="M105.92,54.71c2-.39,4.07-.8,6-1.21C109.92,53.81,107.9,54.22,105.92,54.71Z"/><path class="cls-1" d="M57.66,119.11c0-.79-.06-1.57-.06-2.37A63.69,63.69,0,0,1,71.93,76.4a.24.24,0,0,0-.21-.39,509,509,0,0,1-60.18,3.16H6.63a.92.92,0,0,0-.91.66A121.46,121.46,0,0,0,0,116.74c0,1.23,0,2.45.06,3.67a.25.25,0,0,0,.25.24q5.46.09,11.23.09C28.93,120.74,44.12,120.14,57.66,119.11Z"/><path class="cls-1" d="M181.59,94.61a381.62,381.62,0,0,1,57.57-7.24.32.32,0,0,0,.29-.39,121,121,0,0,0-18-39.61.82.82,0,0,0-.75-.34,420.16,420.16,0,0,0-70.13,12.12.28.28,0,0,0-.05.53A64.22,64.22,0,0,1,181.59,94.61Z"/><path class="cls-1" d="M185.52,116.74a63.67,63.67,0,0,1-11.58,36.7.46.46,0,0,0,.48.73,377.83,377.83,0,0,1,64.38-8.77,1.24,1.24,0,0,0,1.14-.94,121.75,121.75,0,0,0,3.19-27.72,123,123,0,0,0-.66-12.65.53.53,0,0,0-.55-.46,442.78,442.78,0,0,0-56.8,6A63.83,63.83,0,0,1,185.52,116.74Z"/><path class="cls-1" d="M60.32,135.21c-14,1.25-29.9,2-48.78,2-3.17,0-6.23,0-9.23-.06a.5.5,0,0,0-.5.58,120.62,120.62,0,0,0,14.83,40.43,1.19,1.19,0,0,0,1,.59c29.81-.25,53-2.29,72.51-5.26a.48.48,0,0,0,.14-.91A64.16,64.16,0,0,1,60.32,135.21Z"/><path class="cls-1" d="M203.53,206.51a121.82,121.82,0,0,0,30.39-43.3.8.8,0,0,0-.79-1.08c-40.58,2.53-66.78,8.88-91.47,15.33a63.67,63.67,0,0,1-7.82,2C106,186.8,78.81,193.57,30.2,195a.79.79,0,0,0-.59,1.29,121.67,121.67,0,0,0,54,36,1.83,1.83,0,0,0,.84.08c25.07-3.45,44.1-8.44,62.78-13.35,17.23-4.52,33.95-8.9,55.35-12A1.85,1.85,0,0,0,203.53,206.51Z"/><path class="cls-1" d="M133.84,179.51a63.67,63.67,0,0,0,7.82-2l-5,1.31Z"/></g></g></svg>